<?xml version="1.0" encoding="utf-8" standalone="no"?>
<!DOCTYPE svg PUBLIC "-//W3C//DTD SVG 1.1//EN"
  "http://www.w3.org/Graphics/SVG/1.1/DTD/svg11.dtd">
<svg xmlns:xlink="http://www.w3.org/1999/xlink" width="460.8pt" height="345.6pt" viewBox="0 0 460.8 345.6" xmlns="http://www.w3.org/2000/svg" version="1.1">
 <metadata>
  <rdf:RDF xmlns:dc="http://purl.org/dc/elements/1.1/" xmlns:cc="http://creativecommons.org/ns#" xmlns:rdf="http://www.w3.org/1999/02/22-rdf-syntax-ns#">
   <cc:Work>
    <dc:type rdf:resource="http://purl.org/dc/dcmitype/StillImage"/>
    <dc:date>2022-10-21T17:59:42.416173</dc:date>
    <dc:format>image/svg+xml</dc:format>
    <dc:creator>
     <cc:Agent>
      <dc:title>Matplotlib v3.6.0, https://matplotlib.org/</dc:title>
     </cc:Agent>
    </dc:creator>
   </cc:Work>
  </rdf:RDF>
 </metadata>
 <defs>
  <style type="text/css">*{stroke-linejoin: round; stroke-linecap: butt}</style>
 </defs>
 <g id="figure_1">
  <g id="patch_1">
   <path d="M 0 345.6 
L 460.8 345.6 
L 460.8 0 
L 0 0 
z
" style="fill: #ffffff"/>
  </g>
  <g id="axes_1">
   <g id="patch_2">
    <path d="M 57.6 307.584 
L 414.72 307.584 
L 414.72 41.472 
L 57.6 41.472 
z
" style="fill: #ffffff"/>
   </g>
   <g id="matplotlib.axis_1">
    <g id="xtick_1">
     <g id="line2d_1">
      <defs>
       <path id="maefdf0e3d3" d="M 0 0 
L 0 3.5 
" style="stroke: #000000; stroke-width: 0.8"/>
      </defs>
      <g>
       <use xlink:href="#maefdf0e3d3" x="73.832727" y="307.584" style="stroke: #000000; stroke-width: 0.8"/>
      </g>
     </g>
     <g id="text_1">
      <!-- 0 -->
      <g transform="translate(70.651477 322.182437) scale(0.1 -0.1)">
       <defs>
        <path id="DejaVuSans-30" d="M 2034 4250 
Q 1547 4250 1301 3770 
Q 1056 3291 1056 2328 
Q 1056 1369 1301 889 
Q 1547 409 2034 409 
Q 2525 409 2770 889 
Q 3016 1369 3016 2328 
Q 3016 3291 2770 3770 
Q 2525 4250 2034 4250 
z
M 2034 4750 
Q 2819 4750 3233 4129 
Q 3647 3509 3647 2328 
Q 3647 1150 3233 529 
Q 2819 -91 2034 -91 
Q 1250 -91 836 529 
Q 422 1150 422 2328 
Q 422 3509 836 4129 
Q 1250 4750 2034 4750 
z
" transform="scale(0.015625)"/>
       </defs>
       <use xlink:href="#DejaVuSans-30"/>
      </g>
     </g>
    </g>
    <g id="xtick_2">
     <g id="line2d_2">
      <g>
       <use xlink:href="#maefdf0e3d3" x="139.419504" y="307.584" style="stroke: #000000; stroke-width: 0.8"/>
      </g>
     </g>
     <g id="text_2">
      <!-- 20 -->
      <g transform="translate(133.057004 322.182437) scale(0.1 -0.1)">
       <defs>
        <path id="DejaVuSans-32" d="M 1228 531 
L 3431 531 
L 3431 0 
L 469 0 
L 469 531 
Q 828 903 1448 1529 
Q 2069 2156 2228 2338 
Q 2531 2678 2651 2914 
Q 2772 3150 2772 3378 
Q 2772 3750 2511 3984 
Q 2250 4219 1831 4219 
Q 1534 4219 1204 4116 
Q 875 4013 500 3803 
L 500 4441 
Q 881 4594 1212 4672 
Q 1544 4750 1819 4750 
Q 2544 4750 2975 4387 
Q 3406 4025 3406 3419 
Q 3406 3131 3298 2873 
Q 3191 2616 2906 2266 
Q 2828 2175 2409 1742 
Q 1991 1309 1228 531 
z
" transform="scale(0.015625)"/>
       </defs>
       <use xlink:href="#DejaVuSans-32"/>
       <use xlink:href="#DejaVuSans-30" x="63.623047"/>
      </g>
     </g>
    </g>
    <g id="xtick_3">
     <g id="line2d_3">
      <g>
       <use xlink:href="#maefdf0e3d3" x="205.006281" y="307.584" style="stroke: #000000; stroke-width: 0.8"/>
      </g>
     </g>
     <g id="text_3">
      <!-- 40 -->
      <g transform="translate(198.643781 322.182437) scale(0.1 -0.1)">
       <defs>
        <path id="DejaVuSans-34" d="M 2419 4116 
L 825 1625 
L 2419 1625 
L 2419 4116 
z
M 2253 4666 
L 3047 4666 
L 3047 1625 
L 3713 1625 
L 3713 1100 
L 3047 1100 
L 3047 0 
L 2419 0 
L 2419 1100 
L 313 1100 
L 313 1709 
L 2253 4666 
z
" transform="scale(0.015625)"/>
       </defs>
       <use xlink:href="#DejaVuSans-34"/>
       <use xlink:href="#DejaVuSans-30" x="63.623047"/>
      </g>
     </g>
    </g>
    <g id="xtick_4">
     <g id="line2d_4">
      <g>
       <use xlink:href="#maefdf0e3d3" x="270.593058" y="307.584" style="stroke: #000000; stroke-width: 0.8"/>
      </g>
     </g>
     <g id="text_4">
      <!-- 60 -->
      <g transform="translate(264.230558 322.182437) scale(0.1 -0.1)">
       <defs>
        <path id="DejaVuSans-36" d="M 2113 2584 
Q 1688 2584 1439 2293 
Q 1191 2003 1191 1497 
Q 1191 994 1439 701 
Q 1688 409 2113 409 
Q 2538 409 2786 701 
Q 3034 994 3034 1497 
Q 3034 2003 2786 2293 
Q 2538 2584 2113 2584 
z
M 3366 4563 
L 3366 3988 
Q 3128 4100 2886 4159 
Q 2644 4219 2406 4219 
Q 1781 4219 1451 3797 
Q 1122 3375 1075 2522 
Q 1259 2794 1537 2939 
Q 1816 3084 2150 3084 
Q 2853 3084 3261 2657 
Q 3669 2231 3669 1497 
Q 3669 778 3244 343 
Q 2819 -91 2113 -91 
Q 1303 -91 875 529 
Q 447 1150 447 2328 
Q 447 3434 972 4092 
Q 1497 4750 2381 4750 
Q 2619 4750 2861 4703 
Q 3103 4656 3366 4563 
z
" transform="scale(0.015625)"/>
       </defs>
       <use xlink:href="#DejaVuSans-36"/>
       <use xlink:href="#DejaVuSans-30" x="63.623047"/>
      </g>
     </g>
    </g>
    <g id="xtick_5">
     <g id="line2d_5">
      <g>
       <use xlink:href="#maefdf0e3d3" x="336.179835" y="307.584" style="stroke: #000000; stroke-width: 0.8"/>
      </g>
     </g>
     <g id="text_5">
      <!-- 80 -->
      <g transform="translate(329.817335 322.182437) scale(0.1 -0.1)">
       <defs>
        <path id="DejaVuSans-38" d="M 2034 2216 
Q 1584 2216 1326 1975 
Q 1069 1734 1069 1313 
Q 1069 891 1326 650 
Q 1584 409 2034 409 
Q 2484 409 2743 651 
Q 3003 894 3003 1313 
Q 3003 1734 2745 1975 
Q 2488 2216 2034 2216 
z
M 1403 2484 
Q 997 2584 770 2862 
Q 544 3141 544 3541 
Q 544 4100 942 4425 
Q 1341 4750 2034 4750 
Q 2731 4750 3128 4425 
Q 3525 4100 3525 3541 
Q 3525 3141 3298 2862 
Q 3072 2584 2669 2484 
Q 3125 2378 3379 2068 
Q 3634 1759 3634 1313 
Q 3634 634 3220 271 
Q 2806 -91 2034 -91 
Q 1263 -91 848 271 
Q 434 634 434 1313 
Q 434 1759 690 2068 
Q 947 2378 1403 2484 
z
M 1172 3481 
Q 1172 3119 1398 2916 
Q 1625 2713 2034 2713 
Q 2441 2713 2670 2916 
Q 2900 3119 2900 3481 
Q 2900 3844 2670 4047 
Q 2441 4250 2034 4250 
Q 1625 4250 1398 4047 
Q 1172 3844 1172 3481 
z
" transform="scale(0.015625)"/>
       </defs>
       <use xlink:href="#DejaVuSans-38"/>
       <use xlink:href="#DejaVuSans-30" x="63.623047"/>
      </g>
     </g>
    </g>
    <g id="xtick_6">
     <g id="line2d_6">
      <g>
       <use xlink:href="#maefdf0e3d3" x="401.766612" y="307.584" style="stroke: #000000; stroke-width: 0.8"/>
      </g>
     </g>
     <g id="text_6">
      <!-- 100 -->
      <g transform="translate(392.222862 322.182437) scale(0.1 -0.1)">
       <defs>
        <path id="DejaVuSans-31" d="M 794 531 
L 1825 531 
L 1825 4091 
L 703 3866 
L 703 4441 
L 1819 4666 
L 2450 4666 
L 2450 531 
L 3481 531 
L 3481 0 
L 794 0 
L 794 531 
z
" transform="scale(0.015625)"/>
       </defs>
       <use xlink:href="#DejaVuSans-31"/>
       <use xlink:href="#DejaVuSans-30" x="63.623047"/>
       <use xlink:href="#DejaVuSans-30" x="127.246094"/>
      </g>
     </g>
    </g>
    <g id="text_7">
     <!-- Number of sampled Random Product States -->
     <g transform="translate(126.435781 335.860562) scale(0.1 -0.1)">
      <defs>
       <path id="DejaVuSans-4e" d="M 628 4666 
L 1478 4666 
L 3547 763 
L 3547 4666 
L 4159 4666 
L 4159 0 
L 3309 0 
L 1241 3903 
L 1241 0 
L 628 0 
L 628 4666 
z
" transform="scale(0.015625)"/>
       <path id="DejaVuSans-75" d="M 544 1381 
L 544 3500 
L 1119 3500 
L 1119 1403 
Q 1119 906 1312 657 
Q 1506 409 1894 409 
Q 2359 409 2629 706 
Q 2900 1003 2900 1516 
L 2900 3500 
L 3475 3500 
L 3475 0 
L 2900 0 
L 2900 538 
Q 2691 219 2414 64 
Q 2138 -91 1772 -91 
Q 1169 -91 856 284 
Q 544 659 544 1381 
z
M 1991 3584 
L 1991 3584 
z
" transform="scale(0.015625)"/>
       <path id="DejaVuSans-6d" d="M 3328 2828 
Q 3544 3216 3844 3400 
Q 4144 3584 4550 3584 
Q 5097 3584 5394 3201 
Q 5691 2819 5691 2113 
L 5691 0 
L 5113 0 
L 5113 2094 
Q 5113 2597 4934 2840 
Q 4756 3084 4391 3084 
Q 3944 3084 3684 2787 
Q 3425 2491 3425 1978 
L 3425 0 
L 2847 0 
L 2847 2094 
Q 2847 2600 2669 2842 
Q 2491 3084 2119 3084 
Q 1678 3084 1418 2786 
Q 1159 2488 1159 1978 
L 1159 0 
L 581 0 
L 581 3500 
L 1159 3500 
L 1159 2956 
Q 1356 3278 1631 3431 
Q 1906 3584 2284 3584 
Q 2666 3584 2933 3390 
Q 3200 3197 3328 2828 
z
" transform="scale(0.015625)"/>
       <path id="DejaVuSans-62" d="M 3116 1747 
Q 3116 2381 2855 2742 
Q 2594 3103 2138 3103 
Q 1681 3103 1420 2742 
Q 1159 2381 1159 1747 
Q 1159 1113 1420 752 
Q 1681 391 2138 391 
Q 2594 391 2855 752 
Q 3116 1113 3116 1747 
z
M 1159 2969 
Q 1341 3281 1617 3432 
Q 1894 3584 2278 3584 
Q 2916 3584 3314 3078 
Q 3713 2572 3713 1747 
Q 3713 922 3314 415 
Q 2916 -91 2278 -91 
Q 1894 -91 1617 61 
Q 1341 213 1159 525 
L 1159 0 
L 581 0 
L 581 4863 
L 1159 4863 
L 1159 2969 
z
" transform="scale(0.015625)"/>
       <path id="DejaVuSans-65" d="M 3597 1894 
L 3597 1613 
L 953 1613 
Q 991 1019 1311 708 
Q 1631 397 2203 397 
Q 2534 397 2845 478 
Q 3156 559 3463 722 
L 3463 178 
Q 3153 47 2828 -22 
Q 2503 -91 2169 -91 
Q 1331 -91 842 396 
Q 353 884 353 1716 
Q 353 2575 817 3079 
Q 1281 3584 2069 3584 
Q 2775 3584 3186 3129 
Q 3597 2675 3597 1894 
z
M 3022 2063 
Q 3016 2534 2758 2815 
Q 2500 3097 2075 3097 
Q 1594 3097 1305 2825 
Q 1016 2553 972 2059 
L 3022 2063 
z
" transform="scale(0.015625)"/>
       <path id="DejaVuSans-72" d="M 2631 2963 
Q 2534 3019 2420 3045 
Q 2306 3072 2169 3072 
Q 1681 3072 1420 2755 
Q 1159 2438 1159 1844 
L 1159 0 
L 581 0 
L 581 3500 
L 1159 3500 
L 1159 2956 
Q 1341 3275 1631 3429 
Q 1922 3584 2338 3584 
Q 2397 3584 2469 3576 
Q 2541 3569 2628 3553 
L 2631 2963 
z
" transform="scale(0.015625)"/>
       <path id="DejaVuSans-20" transform="scale(0.015625)"/>
       <path id="DejaVuSans-6f" d="M 1959 3097 
Q 1497 3097 1228 2736 
Q 959 2375 959 1747 
Q 959 1119 1226 758 
Q 1494 397 1959 397 
Q 2419 397 2687 759 
Q 2956 1122 2956 1747 
Q 2956 2369 2687 2733 
Q 2419 3097 1959 3097 
z
M 1959 3584 
Q 2709 3584 3137 3096 
Q 3566 2609 3566 1747 
Q 3566 888 3137 398 
Q 2709 -91 1959 -91 
Q 1206 -91 779 398 
Q 353 888 353 1747 
Q 353 2609 779 3096 
Q 1206 3584 1959 3584 
z
" transform="scale(0.015625)"/>
       <path id="DejaVuSans-66" d="M 2375 4863 
L 2375 4384 
L 1825 4384 
Q 1516 4384 1395 4259 
Q 1275 4134 1275 3809 
L 1275 3500 
L 2222 3500 
L 2222 3053 
L 1275 3053 
L 1275 0 
L 697 0 
L 697 3053 
L 147 3053 
L 147 3500 
L 697 3500 
L 697 3744 
Q 697 4328 969 4595 
Q 1241 4863 1831 4863 
L 2375 4863 
z
" transform="scale(0.015625)"/>
       <path id="DejaVuSans-73" d="M 2834 3397 
L 2834 2853 
Q 2591 2978 2328 3040 
Q 2066 3103 1784 3103 
Q 1356 3103 1142 2972 
Q 928 2841 928 2578 
Q 928 2378 1081 2264 
Q 1234 2150 1697 2047 
L 1894 2003 
Q 2506 1872 2764 1633 
Q 3022 1394 3022 966 
Q 3022 478 2636 193 
Q 2250 -91 1575 -91 
Q 1294 -91 989 -36 
Q 684 19 347 128 
L 347 722 
Q 666 556 975 473 
Q 1284 391 1588 391 
Q 1994 391 2212 530 
Q 2431 669 2431 922 
Q 2431 1156 2273 1281 
Q 2116 1406 1581 1522 
L 1381 1569 
Q 847 1681 609 1914 
Q 372 2147 372 2553 
Q 372 3047 722 3315 
Q 1072 3584 1716 3584 
Q 2034 3584 2315 3537 
Q 2597 3491 2834 3397 
z
" transform="scale(0.015625)"/>
       <path id="DejaVuSans-61" d="M 2194 1759 
Q 1497 1759 1228 1600 
Q 959 1441 959 1056 
Q 959 750 1161 570 
Q 1363 391 1709 391 
Q 2188 391 2477 730 
Q 2766 1069 2766 1631 
L 2766 1759 
L 2194 1759 
z
M 3341 1997 
L 3341 0 
L 2766 0 
L 2766 531 
Q 2569 213 2275 61 
Q 1981 -91 1556 -91 
Q 1019 -91 701 211 
Q 384 513 384 1019 
Q 384 1609 779 1909 
Q 1175 2209 1959 2209 
L 2766 2209 
L 2766 2266 
Q 2766 2663 2505 2880 
Q 2244 3097 1772 3097 
Q 1472 3097 1187 3025 
Q 903 2953 641 2809 
L 641 3341 
Q 956 3463 1253 3523 
Q 1550 3584 1831 3584 
Q 2591 3584 2966 3190 
Q 3341 2797 3341 1997 
z
" transform="scale(0.015625)"/>
       <path id="DejaVuSans-70" d="M 1159 525 
L 1159 -1331 
L 581 -1331 
L 581 3500 
L 1159 3500 
L 1159 2969 
Q 1341 3281 1617 3432 
Q 1894 3584 2278 3584 
Q 2916 3584 3314 3078 
Q 3713 2572 3713 1747 
Q 3713 922 3314 415 
Q 2916 -91 2278 -91 
Q 1894 -91 1617 61 
Q 1341 213 1159 525 
z
M 3116 1747 
Q 3116 2381 2855 2742 
Q 2594 3103 2138 3103 
Q 1681 3103 1420 2742 
Q 1159 2381 1159 1747 
Q 1159 1113 1420 752 
Q 1681 391 2138 391 
Q 2594 391 2855 752 
Q 3116 1113 3116 1747 
z
" transform="scale(0.015625)"/>
       <path id="DejaVuSans-6c" d="M 603 4863 
L 1178 4863 
L 1178 0 
L 603 0 
L 603 4863 
z
" transform="scale(0.015625)"/>
       <path id="DejaVuSans-64" d="M 2906 2969 
L 2906 4863 
L 3481 4863 
L 3481 0 
L 2906 0 
L 2906 525 
Q 2725 213 2448 61 
Q 2172 -91 1784 -91 
Q 1150 -91 751 415 
Q 353 922 353 1747 
Q 353 2572 751 3078 
Q 1150 3584 1784 3584 
Q 2172 3584 2448 3432 
Q 2725 3281 2906 2969 
z
M 947 1747 
Q 947 1113 1208 752 
Q 1469 391 1925 391 
Q 2381 391 2643 752 
Q 2906 1113 2906 1747 
Q 2906 2381 2643 2742 
Q 2381 3103 1925 3103 
Q 1469 3103 1208 2742 
Q 947 2381 947 1747 
z
" transform="scale(0.015625)"/>
       <path id="DejaVuSans-52" d="M 2841 2188 
Q 3044 2119 3236 1894 
Q 3428 1669 3622 1275 
L 4263 0 
L 3584 0 
L 2988 1197 
Q 2756 1666 2539 1819 
Q 2322 1972 1947 1972 
L 1259 1972 
L 1259 0 
L 628 0 
L 628 4666 
L 2053 4666 
Q 2853 4666 3247 4331 
Q 3641 3997 3641 3322 
Q 3641 2881 3436 2590 
Q 3231 2300 2841 2188 
z
M 1259 4147 
L 1259 2491 
L 2053 2491 
Q 2509 2491 2742 2702 
Q 2975 2913 2975 3322 
Q 2975 3731 2742 3939 
Q 2509 4147 2053 4147 
L 1259 4147 
z
" transform="scale(0.015625)"/>
       <path id="DejaVuSans-6e" d="M 3513 2113 
L 3513 0 
L 2938 0 
L 2938 2094 
Q 2938 2591 2744 2837 
Q 2550 3084 2163 3084 
Q 1697 3084 1428 2787 
Q 1159 2491 1159 1978 
L 1159 0 
L 581 0 
L 581 3500 
L 1159 3500 
L 1159 2956 
Q 1366 3272 1645 3428 
Q 1925 3584 2291 3584 
Q 2894 3584 3203 3211 
Q 3513 2838 3513 2113 
z
" transform="scale(0.015625)"/>
       <path id="DejaVuSans-50" d="M 1259 4147 
L 1259 2394 
L 2053 2394 
Q 2494 2394 2734 2622 
Q 2975 2850 2975 3272 
Q 2975 3691 2734 3919 
Q 2494 4147 2053 4147 
L 1259 4147 
z
M 628 4666 
L 2053 4666 
Q 2838 4666 3239 4311 
Q 3641 3956 3641 3272 
Q 3641 2581 3239 2228 
Q 2838 1875 2053 1875 
L 1259 1875 
L 1259 0 
L 628 0 
L 628 4666 
z
" transform="scale(0.015625)"/>
       <path id="DejaVuSans-63" d="M 3122 3366 
L 3122 2828 
Q 2878 2963 2633 3030 
Q 2388 3097 2138 3097 
Q 1578 3097 1268 2742 
Q 959 2388 959 1747 
Q 959 1106 1268 751 
Q 1578 397 2138 397 
Q 2388 397 2633 464 
Q 2878 531 3122 666 
L 3122 134 
Q 2881 22 2623 -34 
Q 2366 -91 2075 -91 
Q 1284 -91 818 406 
Q 353 903 353 1747 
Q 353 2603 823 3093 
Q 1294 3584 2113 3584 
Q 2378 3584 2631 3529 
Q 2884 3475 3122 3366 
z
" transform="scale(0.015625)"/>
       <path id="DejaVuSans-74" d="M 1172 4494 
L 1172 3500 
L 2356 3500 
L 2356 3053 
L 1172 3053 
L 1172 1153 
Q 1172 725 1289 603 
Q 1406 481 1766 481 
L 2356 481 
L 2356 0 
L 1766 0 
Q 1100 0 847 248 
Q 594 497 594 1153 
L 594 3053 
L 172 3053 
L 172 3500 
L 594 3500 
L 594 4494 
L 1172 4494 
z
" transform="scale(0.015625)"/>
       <path id="DejaVuSans-53" d="M 3425 4513 
L 3425 3897 
Q 3066 4069 2747 4153 
Q 2428 4238 2131 4238 
Q 1616 4238 1336 4038 
Q 1056 3838 1056 3469 
Q 1056 3159 1242 3001 
Q 1428 2844 1947 2747 
L 2328 2669 
Q 3034 2534 3370 2195 
Q 3706 1856 3706 1288 
Q 3706 609 3251 259 
Q 2797 -91 1919 -91 
Q 1588 -91 1214 -16 
Q 841 59 441 206 
L 441 856 
Q 825 641 1194 531 
Q 1563 422 1919 422 
Q 2459 422 2753 634 
Q 3047 847 3047 1241 
Q 3047 1584 2836 1778 
Q 2625 1972 2144 2069 
L 1759 2144 
Q 1053 2284 737 2584 
Q 422 2884 422 3419 
Q 422 4038 858 4394 
Q 1294 4750 2059 4750 
Q 2388 4750 2728 4690 
Q 3069 4631 3425 4513 
z
" transform="scale(0.015625)"/>
      </defs>
      <use xlink:href="#DejaVuSans-4e"/>
      <use xlink:href="#DejaVuSans-75" x="74.804688"/>
      <use xlink:href="#DejaVuSans-6d" x="138.183594"/>
      <use xlink:href="#DejaVuSans-62" x="235.595703"/>
      <use xlink:href="#DejaVuSans-65" x="299.072266"/>
      <use xlink:href="#DejaVuSans-72" x="360.595703"/>
      <use xlink:href="#DejaVuSans-20" x="401.708984"/>
      <use xlink:href="#DejaVuSans-6f" x="433.496094"/>
      <use xlink:href="#DejaVuSans-66" x="494.677734"/>
      <use xlink:href="#DejaVuSans-20" x="529.882812"/>
      <use xlink:href="#DejaVuSans-73" x="561.669922"/>
      <use xlink:href="#DejaVuSans-61" x="613.769531"/>
      <use xlink:href="#DejaVuSans-6d" x="675.048828"/>
      <use xlink:href="#DejaVuSans-70" x="772.460938"/>
      <use xlink:href="#DejaVuSans-6c" x="835.9375"/>
      <use xlink:href="#DejaVuSans-65" x="863.720703"/>
      <use xlink:href="#DejaVuSans-64" x="925.244141"/>
      <use xlink:href="#DejaVuSans-20" x="988.720703"/>
      <use xlink:href="#DejaVuSans-52" x="1020.507812"/>
      <use xlink:href="#DejaVuSans-61" x="1087.740234"/>
      <use xlink:href="#DejaVuSans-6e" x="1149.019531"/>
      <use xlink:href="#DejaVuSans-64" x="1212.398438"/>
      <use xlink:href="#DejaVuSans-6f" x="1275.875"/>
      <use xlink:href="#DejaVuSans-6d" x="1337.056641"/>
      <use xlink:href="#DejaVuSans-20" x="1434.46875"/>
      <use xlink:href="#DejaVuSans-50" x="1466.255859"/>
      <use xlink:href="#DejaVuSans-72" x="1524.808594"/>
      <use xlink:href="#DejaVuSans-6f" x="1563.671875"/>
      <use xlink:href="#DejaVuSans-64" x="1624.853516"/>
      <use xlink:href="#DejaVuSans-75" x="1688.330078"/>
      <use xlink:href="#DejaVuSans-63" x="1751.708984"/>
      <use xlink:href="#DejaVuSans-74" x="1806.689453"/>
      <use xlink:href="#DejaVuSans-20" x="1845.898438"/>
      <use xlink:href="#DejaVuSans-53" x="1877.685547"/>
      <use xlink:href="#DejaVuSans-74" x="1941.162109"/>
      <use xlink:href="#DejaVuSans-61" x="1980.371094"/>
      <use xlink:href="#DejaVuSans-74" x="2041.650391"/>
      <use xlink:href="#DejaVuSans-65" x="2080.859375"/>
      <use xlink:href="#DejaVuSans-73" x="2142.382812"/>
     </g>
    </g>
   </g>
   <g id="matplotlib.axis_2">
    <g id="ytick_1">
     <g id="line2d_7">
      <defs>
       <path id="m132e7bc851" d="M 0 0 
L -3.5 0 
" style="stroke: #000000; stroke-width: 0.8"/>
      </defs>
      <g>
       <use xlink:href="#m132e7bc851" x="57.6" y="295.488" style="stroke: #000000; stroke-width: 0.8"/>
      </g>
     </g>
     <g id="text_8">
      <!-- 0 -->
      <g transform="translate(44.2375 299.287219) scale(0.1 -0.1)">
       <use xlink:href="#DejaVuSans-30"/>
      </g>
     </g>
    </g>
    <g id="ytick_2">
     <g id="line2d_8">
      <g>
       <use xlink:href="#m132e7bc851" x="57.6" y="263.408786" style="stroke: #000000; stroke-width: 0.8"/>
      </g>
     </g>
     <g id="text_9">
      <!-- 100 -->
      <g transform="translate(31.5125 267.208004) scale(0.1 -0.1)">
       <use xlink:href="#DejaVuSans-31"/>
       <use xlink:href="#DejaVuSans-30" x="63.623047"/>
       <use xlink:href="#DejaVuSans-30" x="127.246094"/>
      </g>
     </g>
    </g>
    <g id="ytick_3">
     <g id="line2d_9">
      <g>
       <use xlink:href="#m132e7bc851" x="57.6" y="231.329571" style="stroke: #000000; stroke-width: 0.8"/>
      </g>
     </g>
     <g id="text_10">
      <!-- 200 -->
      <g transform="translate(31.5125 235.12879) scale(0.1 -0.1)">
       <use xlink:href="#DejaVuSans-32"/>
       <use xlink:href="#DejaVuSans-30" x="63.623047"/>
       <use xlink:href="#DejaVuSans-30" x="127.246094"/>
      </g>
     </g>
    </g>
    <g id="ytick_4">
     <g id="line2d_10">
      <g>
       <use xlink:href="#m132e7bc851" x="57.6" y="199.250357" style="stroke: #000000; stroke-width: 0.8"/>
      </g>
     </g>
     <g id="text_11">
      <!-- 300 -->
      <g transform="translate(31.5125 203.049576) scale(0.1 -0.1)">
       <defs>
        <path id="DejaVuSans-33" d="M 2597 2516 
Q 3050 2419 3304 2112 
Q 3559 1806 3559 1356 
Q 3559 666 3084 287 
Q 2609 -91 1734 -91 
Q 1441 -91 1130 -33 
Q 819 25 488 141 
L 488 750 
Q 750 597 1062 519 
Q 1375 441 1716 441 
Q 2309 441 2620 675 
Q 2931 909 2931 1356 
Q 2931 1769 2642 2001 
Q 2353 2234 1838 2234 
L 1294 2234 
L 1294 2753 
L 1863 2753 
Q 2328 2753 2575 2939 
Q 2822 3125 2822 3475 
Q 2822 3834 2567 4026 
Q 2313 4219 1838 4219 
Q 1578 4219 1281 4162 
Q 984 4106 628 3988 
L 628 4550 
Q 988 4650 1302 4700 
Q 1616 4750 1894 4750 
Q 2613 4750 3031 4423 
Q 3450 4097 3450 3541 
Q 3450 3153 3228 2886 
Q 3006 2619 2597 2516 
z
" transform="scale(0.015625)"/>
       </defs>
       <use xlink:href="#DejaVuSans-33"/>
       <use xlink:href="#DejaVuSans-30" x="63.623047"/>
       <use xlink:href="#DejaVuSans-30" x="127.246094"/>
      </g>
     </g>
    </g>
    <g id="ytick_5">
     <g id="line2d_11">
      <g>
       <use xlink:href="#m132e7bc851" x="57.6" y="167.171143" style="stroke: #000000; stroke-width: 0.8"/>
      </g>
     </g>
     <g id="text_12">
      <!-- 400 -->
      <g transform="translate(31.5125 170.970361) scale(0.1 -0.1)">
       <use xlink:href="#DejaVuSans-34"/>
       <use xlink:href="#DejaVuSans-30" x="63.623047"/>
       <use xlink:href="#DejaVuSans-30" x="127.246094"/>
      </g>
     </g>
    </g>
    <g id="ytick_6">
     <g id="line2d_12">
      <g>
       <use xlink:href="#m132e7bc851" x="57.6" y="135.091928" style="stroke: #000000; stroke-width: 0.8"/>
      </g>
     </g>
     <g id="text_13">
      <!-- 500 -->
      <g transform="translate(31.5125 138.891147) scale(0.1 -0.1)">
       <defs>
        <path id="DejaVuSans-35" d="M 691 4666 
L 3169 4666 
L 3169 4134 
L 1269 4134 
L 1269 2991 
Q 1406 3038 1543 3061 
Q 1681 3084 1819 3084 
Q 2600 3084 3056 2656 
Q 3513 2228 3513 1497 
Q 3513 744 3044 326 
Q 2575 -91 1722 -91 
Q 1428 -91 1123 -41 
Q 819 9 494 109 
L 494 744 
Q 775 591 1075 516 
Q 1375 441 1709 441 
Q 2250 441 2565 725 
Q 2881 1009 2881 1497 
Q 2881 1984 2565 2268 
Q 2250 2553 1709 2553 
Q 1456 2553 1204 2497 
Q 953 2441 691 2322 
L 691 4666 
z
" transform="scale(0.015625)"/>
       </defs>
       <use xlink:href="#DejaVuSans-35"/>
       <use xlink:href="#DejaVuSans-30" x="63.623047"/>
       <use xlink:href="#DejaVuSans-30" x="127.246094"/>
      </g>
     </g>
    </g>
    <g id="ytick_7">
     <g id="line2d_13">
      <g>
       <use xlink:href="#m132e7bc851" x="57.6" y="103.012714" style="stroke: #000000; stroke-width: 0.8"/>
      </g>
     </g>
     <g id="text_14">
      <!-- 600 -->
      <g transform="translate(31.5125 106.811933) scale(0.1 -0.1)">
       <use xlink:href="#DejaVuSans-36"/>
       <use xlink:href="#DejaVuSans-30" x="63.623047"/>
       <use xlink:href="#DejaVuSans-30" x="127.246094"/>
      </g>
     </g>
    </g>
    <g id="ytick_8">
     <g id="line2d_14">
      <g>
       <use xlink:href="#m132e7bc851" x="57.6" y="70.9335" style="stroke: #000000; stroke-width: 0.8"/>
      </g>
     </g>
     <g id="text_15">
      <!-- 700 -->
      <g transform="translate(31.5125 74.732719) scale(0.1 -0.1)">
       <defs>
        <path id="DejaVuSans-37" d="M 525 4666 
L 3525 4666 
L 3525 4397 
L 1831 0 
L 1172 0 
L 2766 4134 
L 525 4134 
L 525 4666 
z
" transform="scale(0.015625)"/>
       </defs>
       <use xlink:href="#DejaVuSans-37"/>
       <use xlink:href="#DejaVuSans-30" x="63.623047"/>
       <use xlink:href="#DejaVuSans-30" x="127.246094"/>
      </g>
     </g>
    </g>
    <g id="text_16">
     <!-- Number of sampled Random Bitstring States -->
     <g transform="translate(25.432812 286.402219) rotate(-90) scale(0.1 -0.1)">
      <defs>
       <path id="DejaVuSans-42" d="M 1259 2228 
L 1259 519 
L 2272 519 
Q 2781 519 3026 730 
Q 3272 941 3272 1375 
Q 3272 1813 3026 2020 
Q 2781 2228 2272 2228 
L 1259 2228 
z
M 1259 4147 
L 1259 2741 
L 2194 2741 
Q 2656 2741 2882 2914 
Q 3109 3088 3109 3444 
Q 3109 3797 2882 3972 
Q 2656 4147 2194 4147 
L 1259 4147 
z
M 628 4666 
L 2241 4666 
Q 2963 4666 3353 4366 
Q 3744 4066 3744 3513 
Q 3744 3084 3544 2831 
Q 3344 2578 2956 2516 
Q 3422 2416 3680 2098 
Q 3938 1781 3938 1306 
Q 3938 681 3513 340 
Q 3088 0 2303 0 
L 628 0 
L 628 4666 
z
" transform="scale(0.015625)"/>
       <path id="DejaVuSans-69" d="M 603 3500 
L 1178 3500 
L 1178 0 
L 603 0 
L 603 3500 
z
M 603 4863 
L 1178 4863 
L 1178 4134 
L 603 4134 
L 603 4863 
z
" transform="scale(0.015625)"/>
       <path id="DejaVuSans-67" d="M 2906 1791 
Q 2906 2416 2648 2759 
Q 2391 3103 1925 3103 
Q 1463 3103 1205 2759 
Q 947 2416 947 1791 
Q 947 1169 1205 825 
Q 1463 481 1925 481 
Q 2391 481 2648 825 
Q 2906 1169 2906 1791 
z
M 3481 434 
Q 3481 -459 3084 -895 
Q 2688 -1331 1869 -1331 
Q 1566 -1331 1297 -1286 
Q 1028 -1241 775 -1147 
L 775 -588 
Q 1028 -725 1275 -790 
Q 1522 -856 1778 -856 
Q 2344 -856 2625 -561 
Q 2906 -266 2906 331 
L 2906 616 
Q 2728 306 2450 153 
Q 2172 0 1784 0 
Q 1141 0 747 490 
Q 353 981 353 1791 
Q 353 2603 747 3093 
Q 1141 3584 1784 3584 
Q 2172 3584 2450 3431 
Q 2728 3278 2906 2969 
L 2906 3500 
L 3481 3500 
L 3481 434 
z
" transform="scale(0.015625)"/>
      </defs>
      <use xlink:href="#DejaVuSans-4e"/>
      <use xlink:href="#DejaVuSans-75" x="74.804688"/>
      <use xlink:href="#DejaVuSans-6d" x="138.183594"/>
      <use xlink:href="#DejaVuSans-62" x="235.595703"/>
      <use xlink:href="#DejaVuSans-65" x="299.072266"/>
      <use xlink:href="#DejaVuSans-72" x="360.595703"/>
      <use xlink:href="#DejaVuSans-20" x="401.708984"/>
      <use xlink:href="#DejaVuSans-6f" x="433.496094"/>
      <use xlink:href="#DejaVuSans-66" x="494.677734"/>
      <use xlink:href="#DejaVuSans-20" x="529.882812"/>
      <use xlink:href="#DejaVuSans-73" x="561.669922"/>
      <use xlink:href="#DejaVuSans-61" x="613.769531"/>
      <use xlink:href="#DejaVuSans-6d" x="675.048828"/>
      <use xlink:href="#DejaVuSans-70" x="772.460938"/>
      <use xlink:href="#DejaVuSans-6c" x="835.9375"/>
      <use xlink:href="#DejaVuSans-65" x="863.720703"/>
      <use xlink:href="#DejaVuSans-64" x="925.244141"/>
      <use xlink:href="#DejaVuSans-20" x="988.720703"/>
      <use xlink:href="#DejaVuSans-52" x="1020.507812"/>
      <use xlink:href="#DejaVuSans-61" x="1087.740234"/>
      <use xlink:href="#DejaVuSans-6e" x="1149.019531"/>
      <use xlink:href="#DejaVuSans-64" x="1212.398438"/>
      <use xlink:href="#DejaVuSans-6f" x="1275.875"/>
      <use xlink:href="#DejaVuSans-6d" x="1337.056641"/>
      <use xlink:href="#DejaVuSans-20" x="1434.46875"/>
      <use xlink:href="#DejaVuSans-42" x="1466.255859"/>
      <use xlink:href="#DejaVuSans-69" x="1534.859375"/>
      <use xlink:href="#DejaVuSans-74" x="1562.642578"/>
      <use xlink:href="#DejaVuSans-73" x="1601.851562"/>
      <use xlink:href="#DejaVuSans-74" x="1653.951172"/>
      <use xlink:href="#DejaVuSans-72" x="1693.160156"/>
      <use xlink:href="#DejaVuSans-69" x="1734.273438"/>
      <use xlink:href="#DejaVuSans-6e" x="1762.056641"/>
      <use xlink:href="#DejaVuSans-67" x="1825.435547"/>
      <use xlink:href="#DejaVuSans-20" x="1888.912109"/>
      <use xlink:href="#DejaVuSans-53" x="1920.699219"/>
      <use xlink:href="#DejaVuSans-74" x="1984.175781"/>
      <use xlink:href="#DejaVuSans-61" x="2023.384766"/>
      <use xlink:href="#DejaVuSans-74" x="2084.664062"/>
      <use xlink:href="#DejaVuSans-65" x="2123.873047"/>
      <use xlink:href="#DejaVuSans-73" x="2185.396484"/>
     </g>
    </g>
   </g>
   <g id="line2d_15">
    <path d="M 73.832727 295.488 
L 77.112066 293.188821 
L 80.391405 290.914183 
L 83.670744 288.648718 
L 86.950083 286.389189 
L 90.229421 284.134064 
L 93.50876 281.882442 
L 96.788099 279.633728 
L 100.067438 277.387503 
L 103.346777 275.143449 
L 106.626116 272.901324 
L 109.905455 270.660932 
L 113.184793 268.422114 
L 116.464132 266.184738 
L 119.743471 263.948691 
L 123.02281 261.713879 
L 126.302149 259.480217 
L 129.581488 257.247633 
L 132.860826 255.016064 
L 136.140165 252.785452 
L 139.419504 250.555746 
L 142.698843 248.326902 
L 145.978182 246.098877 
L 149.257521 243.871635 
L 152.53686 241.64514 
L 155.816198 239.419361 
L 159.095537 237.19427 
L 162.374876 234.969839 
L 165.654215 232.746045 
L 168.933554 230.522864 
L 172.212893 228.300275 
L 175.492231 226.078258 
L 178.77157 223.856794 
L 182.050909 221.635866 
L 185.330248 219.415458 
L 188.609587 217.195554 
L 191.888926 214.97614 
L 195.168264 212.757202 
L 198.447603 210.538726 
L 201.726942 208.320702 
L 205.006281 206.103116 
L 208.28562 203.885959 
L 211.564959 201.669219 
L 214.844298 199.452887 
L 218.123636 197.236952 
L 221.402975 195.021407 
L 224.682314 192.806241 
L 227.961653 190.591448 
L 231.240992 188.377018 
L 234.520331 186.162944 
L 237.799669 183.949219 
L 241.079008 181.735836 
L 244.358347 179.522788 
L 247.637686 177.310069 
L 250.917025 175.097672 
L 254.196364 172.885591 
L 257.475702 170.673821 
L 260.755041 168.462356 
L 264.03438 166.25119 
L 267.313719 164.040318 
L 270.593058 161.829736 
L 273.872397 159.619438 
L 277.151736 157.40942 
L 280.431074 155.199678 
L 283.710413 152.990206 
L 286.989752 150.781 
L 290.269091 148.572057 
L 293.54843 146.363373 
L 296.827769 144.154942 
L 300.107107 141.946763 
L 303.386446 139.738831 
L 306.665785 137.531142 
L 309.945124 135.323693 
L 313.224463 133.116481 
L 316.503802 130.909502 
L 319.78314 128.702754 
L 323.062479 126.496233 
L 326.341818 124.289936 
L 329.621157 122.08386 
L 332.900496 119.878002 
L 336.179835 117.67236 
L 339.459174 115.466931 
L 342.738512 113.261713 
L 346.017851 111.056701 
L 349.29719 108.851895 
L 352.576529 106.647292 
L 355.855868 104.442888 
L 359.135207 102.238683 
L 362.414545 100.034673 
L 365.693884 97.830857 
L 368.973223 95.627232 
L 372.252562 93.423795 
L 375.531901 91.220546 
L 378.81124 89.017482 
L 382.090579 86.8146 
L 385.369917 84.6119 
L 388.649256 82.409378 
L 391.928595 80.207034 
L 395.207934 78.004865 
L 398.487273 75.802869 
" clip-path="url(#p912eeb15ba)" style="fill: none; stroke: #1f77b4; stroke-width: 1.5; stroke-linecap: square"/>
   </g>
   <g id="line2d_16">
    <path d="M 73.832727 295.488 
L 77.112066 293.490196 
L 80.391405 291.445653 
L 83.670744 289.383088 
L 86.950083 287.308733 
L 90.229421 285.225566 
L 93.50876 283.13535 
L 96.788099 281.039253 
L 100.067438 278.938109 
L 103.346777 276.832543 
L 106.626116 274.723039 
L 109.905455 272.609987 
L 113.184793 270.493705 
L 116.464132 268.374459 
L 119.743471 266.252473 
L 123.02281 264.12794 
L 126.302149 262.001028 
L 129.581488 259.871883 
L 132.860826 257.740634 
L 136.140165 255.607397 
L 139.419504 253.472274 
L 142.698843 251.335359 
L 145.978182 249.196735 
L 149.257521 247.056478 
L 152.53686 244.91466 
L 155.816198 242.771343 
L 159.095537 240.626587 
L 162.374876 238.480446 
L 165.654215 236.33297 
L 168.933554 234.184207 
L 172.212893 232.034201 
L 175.492231 229.882991 
L 178.77157 227.730616 
L 182.050909 225.577113 
L 185.330248 223.422514 
L 188.609587 221.266852 
L 191.888926 219.110155 
L 195.168264 216.952453 
L 198.447603 214.793773 
L 201.726942 212.634139 
L 205.006281 210.473575 
L 208.28562 208.312105 
L 211.564959 206.149751 
L 214.844298 203.986532 
L 218.123636 201.822469 
L 221.402975 199.65758 
L 224.682314 197.491884 
L 227.961653 195.325398 
L 231.240992 193.158138 
L 234.520331 190.990121 
L 237.799669 188.82136 
L 241.079008 186.651873 
L 244.358347 184.481671 
L 247.637686 182.310768 
L 250.917025 180.139179 
L 254.196364 177.966914 
L 257.475702 175.793987 
L 260.755041 173.620409 
L 264.03438 171.44619 
L 267.313719 169.271343 
L 270.593058 167.095877 
L 273.872397 164.919802 
L 277.151736 162.743129 
L 280.431074 160.565867 
L 283.710413 158.388024 
L 286.989752 156.209611 
L 290.269091 154.030635 
L 293.54843 151.851106 
L 296.827769 149.67103 
L 300.107107 147.490416 
L 303.386446 145.309272 
L 306.665785 143.127605 
L 309.945124 140.945423 
L 313.224463 138.762732 
L 316.503802 136.579539 
L 319.78314 134.395851 
L 323.062479 132.211675 
L 326.341818 130.027016 
L 329.621157 127.841881 
L 332.900496 125.656276 
L 336.179835 123.470207 
L 339.459174 121.28368 
L 342.738512 119.096699 
L 346.017851 116.909271 
L 349.29719 114.7214 
L 352.576529 112.533093 
L 355.855868 110.344353 
L 359.135207 108.155187 
L 362.414545 105.965598 
L 365.693884 103.775591 
L 368.973223 101.585172 
L 372.252562 99.394345 
L 375.531901 97.203113 
L 378.81124 95.011482 
L 382.090579 92.819455 
L 385.369917 90.627037 
L 388.649256 88.434232 
L 391.928595 86.241043 
L 395.207934 84.047475 
L 398.487273 81.853532 
" clip-path="url(#p912eeb15ba)" style="fill: none; stroke: #ff7f0e; stroke-width: 1.5; stroke-linecap: square"/>
   </g>
   <g id="line2d_17">
    <path d="M 73.832727 295.488 
L 77.112066 293.04352 
L 80.391405 290.649621 
L 83.670744 288.274449 
L 86.950083 285.911358 
L 90.229421 283.557208 
L 93.50876 281.210161 
L 96.788099 278.869003 
L 100.067438 276.532875 
L 103.346777 274.201136 
L 106.626116 271.873289 
L 109.905455 269.548938 
L 113.184793 267.227759 
L 116.464132 264.909484 
L 119.743471 262.593886 
L 123.02281 260.280771 
L 126.302149 257.96997 
L 129.581488 255.661336 
L 132.860826 253.35474 
L 136.140165 251.050066 
L 139.419504 248.747213 
L 142.698843 246.446088 
L 145.978182 244.146607 
L 149.257521 241.848693 
L 152.53686 239.552279 
L 155.816198 237.257301 
L 159.095537 234.9637 
L 162.374876 232.671422 
L 165.654215 230.380418 
L 168.933554 228.090642 
L 172.212893 225.80205 
L 175.492231 223.514603 
L 178.77157 221.228262 
L 182.050909 218.942994 
L 185.330248 216.658765 
L 188.609587 214.375544 
L 191.888926 212.093301 
L 195.168264 209.812009 
L 198.447603 207.531643 
L 201.726942 205.252176 
L 205.006281 202.973587 
L 208.28562 200.695852 
L 211.564959 198.418951 
L 214.844298 196.142863 
L 218.123636 193.867569 
L 221.402975 191.593051 
L 224.682314 189.319291 
L 227.961653 187.046273 
L 231.240992 184.773981 
L 234.520331 182.502398 
L 237.799669 180.231511 
L 241.079008 177.961306 
L 244.358347 175.691768 
L 247.637686 173.422885 
L 250.917025 171.154645 
L 254.196364 168.887034 
L 257.475702 166.620042 
L 260.755041 164.353658 
L 264.03438 162.087869 
L 267.313719 159.822667 
L 270.593058 157.558042 
L 273.872397 155.293982 
L 277.151736 153.030479 
L 280.431074 150.767524 
L 283.710413 148.505107 
L 286.989752 146.243222 
L 290.269091 143.981858 
L 293.54843 141.721008 
L 296.827769 139.460664 
L 300.107107 137.20082 
L 303.386446 134.941466 
L 306.665785 132.682597 
L 309.945124 130.424205 
L 313.224463 128.166283 
L 316.503802 125.908826 
L 319.78314 123.651827 
L 323.062479 121.395278 
L 326.341818 119.139176 
L 329.621157 116.883513 
L 332.900496 114.628283 
L 336.179835 112.373482 
L 339.459174 110.119104 
L 342.738512 107.865144 
L 346.017851 105.611596 
L 349.29719 103.358455 
L 352.576529 101.105716 
L 355.855868 98.853376 
L 359.135207 96.601428 
L 362.414545 94.349868 
L 365.693884 92.098693 
L 368.973223 89.847897 
L 372.252562 87.597476 
L 375.531901 85.347426 
L 378.81124 83.097743 
L 382.090579 80.848423 
L 385.369917 78.599462 
L 388.649256 76.350856 
L 391.928595 74.102601 
L 395.207934 71.854694 
L 398.487273 69.607132 
" clip-path="url(#p912eeb15ba)" style="fill: none; stroke: #2ca02c; stroke-width: 1.5; stroke-linecap: square"/>
   </g>
   <g id="line2d_18">
    <path d="M 73.832727 295.488 
L 77.112066 293.899593 
L 80.391405 292.168816 
L 83.670744 290.379892 
L 86.950083 288.55213 
L 90.229421 286.694933 
L 93.50876 284.813939 
L 96.788099 282.912921 
L 100.067438 280.994591 
L 103.346777 279.060995 
L 106.626116 277.113736 
L 109.905455 275.154101 
L 113.184793 273.183152 
L 116.464132 271.201775 
L 119.743471 269.210725 
L 123.02281 267.210653 
L 126.302149 265.202123 
L 129.581488 263.185632 
L 132.860826 261.161622 
L 136.140165 259.130483 
L 139.419504 257.092568 
L 142.698843 255.048197 
L 145.978182 252.997656 
L 149.257521 250.941209 
L 152.53686 248.879098 
L 155.816198 246.811544 
L 159.095537 244.738752 
L 162.374876 242.660909 
L 165.654215 240.578192 
L 168.933554 238.490765 
L 172.212893 236.398779 
L 175.492231 234.302377 
L 178.77157 232.201693 
L 182.050909 230.096852 
L 185.330248 227.987972 
L 188.609587 225.875166 
L 191.888926 223.758537 
L 195.168264 221.638186 
L 198.447603 219.514206 
L 201.726942 217.386688 
L 205.006281 215.255717 
L 208.28562 213.121373 
L 211.564959 210.983734 
L 214.844298 208.842873 
L 218.123636 206.698861 
L 221.402975 204.551764 
L 224.682314 202.401647 
L 227.961653 200.248571 
L 231.240992 198.092596 
L 234.520331 195.933777 
L 237.799669 193.772171 
L 241.079008 191.607828 
L 244.358347 189.440799 
L 247.637686 187.271132 
L 250.917025 185.098875 
L 254.196364 182.924071 
L 257.475702 180.746766 
L 260.755041 178.566999 
L 264.03438 176.384812 
L 267.313719 174.200245 
L 270.593058 172.013334 
L 273.872397 169.824116 
L 277.151736 167.632628 
L 280.431074 165.438902 
L 283.710413 163.242973 
L 286.989752 161.044872 
L 290.269091 158.844632 
L 293.54843 156.642282 
L 296.827769 154.437852 
L 300.107107 152.23137 
L 303.386446 150.022865 
L 306.665785 147.812364 
L 309.945124 145.599892 
L 313.224463 143.385476 
L 316.503802 141.169141 
L 319.78314 138.95091 
L 323.062479 136.730808 
L 326.341818 134.508857 
L 329.621157 132.285081 
L 332.900496 130.0595 
L 336.179835 127.832137 
L 339.459174 125.603012 
L 342.738512 123.372146 
L 346.017851 121.139559 
L 349.29719 118.905269 
L 352.576529 116.669297 
L 355.855868 114.43166 
L 359.135207 112.192376 
L 362.414545 109.951465 
L 365.693884 107.708941 
L 368.973223 105.464824 
L 372.252562 103.219129 
L 375.531901 100.971873 
L 378.81124 98.723071 
L 382.090579 96.472739 
L 385.369917 94.220893 
L 388.649256 91.967547 
L 391.928595 89.712715 
L 395.207934 87.456413 
L 398.487273 85.198654 
" clip-path="url(#p912eeb15ba)" style="fill: none; stroke: #d62728; stroke-width: 1.5; stroke-linecap: square"/>
   </g>
   <g id="line2d_19">
    <path d="M 73.832727 295.488 
L 77.112066 293.00415 
L 80.391405 290.532516 
L 83.670744 288.065472 
L 86.950083 285.601404 
L 90.229421 283.139547 
L 93.50876 280.67945 
L 96.788099 278.220816 
L 100.067438 275.763434 
L 103.346777 273.307145 
L 106.626116 270.851828 
L 109.905455 268.397384 
L 113.184793 265.943733 
L 116.464132 263.49081 
L 119.743471 261.038557 
L 123.02281 258.586927 
L 126.302149 256.135878 
L 129.581488 253.685374 
L 132.860826 251.235382 
L 136.140165 248.785873 
L 139.419504 246.336823 
L 142.698843 243.888207 
L 145.978182 241.440006 
L 149.257521 238.992201 
L 152.53686 236.544773 
L 155.816198 234.097708 
L 159.095537 231.650991 
L 162.374876 229.204608 
L 165.654215 226.758547 
L 168.933554 224.312796 
L 172.212893 221.867345 
L 175.492231 219.422183 
L 178.77157 216.977302 
L 182.050909 214.532692 
L 185.330248 212.088345 
L 188.609587 209.644254 
L 191.888926 207.20041 
L 195.168264 204.756808 
L 198.447603 202.313441 
L 201.726942 199.870301 
L 205.006281 197.427385 
L 208.28562 194.984685 
L 211.564959 192.542197 
L 214.844298 190.099916 
L 218.123636 187.657836 
L 221.402975 185.215954 
L 224.682314 182.774264 
L 227.961653 180.332763 
L 231.240992 177.891446 
L 234.520331 175.45031 
L 237.799669 173.009351 
L 241.079008 170.568566 
L 244.358347 168.12795 
L 247.637686 165.687501 
L 250.917025 163.247216 
L 254.196364 160.807091 
L 257.475702 158.367124 
L 260.755041 155.927312 
L 264.03438 153.487651 
L 267.313719 151.048141 
L 270.593058 148.608777 
L 273.872397 146.169557 
L 277.151736 143.730479 
L 280.431074 141.291542 
L 283.710413 138.852741 
L 286.989752 136.414076 
L 290.269091 133.975545 
L 293.54843 131.537144 
L 296.827769 129.098873 
L 300.107107 126.660729 
L 303.386446 124.222711 
L 306.665785 121.784817 
L 309.945124 119.347044 
L 313.224463 116.909392 
L 316.503802 114.471858 
L 319.78314 112.034441 
L 323.062479 109.59714 
L 326.341818 107.159953 
L 329.621157 104.722878 
L 332.900496 102.285914 
L 336.179835 99.84906 
L 339.459174 97.412314 
L 342.738512 94.975674 
L 346.017851 92.539141 
L 349.29719 90.102711 
L 352.576529 87.666385 
L 355.855868 85.23016 
L 359.135207 82.794036 
L 362.414545 80.358012 
L 365.693884 77.922086 
L 368.973223 75.486257 
L 372.252562 73.050524 
L 375.531901 70.614886 
L 378.81124 68.179343 
L 382.090579 65.743892 
L 385.369917 63.308533 
L 388.649256 60.873266 
L 391.928595 58.438088 
L 395.207934 56.003 
L 398.487273 53.568 
" clip-path="url(#p912eeb15ba)" style="fill: none; stroke: #9467bd; stroke-width: 1.5; stroke-linecap: square"/>
   </g>
   <g id="patch_3">
    <path d="M 57.6 307.584 
L 57.6 41.472 
" style="fill: none; stroke: #000000; stroke-width: 0.8; stroke-linejoin: miter; stroke-linecap: square"/>
   </g>
   <g id="patch_4">
    <path d="M 414.72 307.584 
L 414.72 41.472 
" style="fill: none; stroke: #000000; stroke-width: 0.8; stroke-linejoin: miter; stroke-linecap: square"/>
   </g>
   <g id="patch_5">
    <path d="M 57.6 307.584 
L 414.72 307.584 
" style="fill: none; stroke: #000000; stroke-width: 0.8; stroke-linejoin: miter; stroke-linecap: square"/>
   </g>
   <g id="patch_6">
    <path d="M 57.6 41.472 
L 414.72 41.472 
" style="fill: none; stroke: #000000; stroke-width: 0.8; stroke-linejoin: miter; stroke-linecap: square"/>
   </g>
  </g>
 </g>
 <defs>
  <clipPath id="p912eeb15ba">
   <rect x="57.6" y="41.472" width="357.12" height="266.112"/>
  </clipPath>
 </defs>
</svg>
